<svg width="12" height="12" viewBox="0 0 12 12" fill="none" xmlns="http://www.w3.org/2000/svg">
<path fill-rule="evenodd" clip-rule="evenodd" d="M3.19684 4.12062C3.59978 3.51962 4.18521 3.06404 4.86678 2.82107C5.54834 2.57811 6.28995 2.56063 6.9822 2.77122C7.67446 2.98181 8.2807 3.40931 8.7115 3.99066C9.04201 4.43667 9.25584 4.95511 9.33748 5.49907L7.77734 4.45898L7.22264 5.29103L9.47264 6.79103L9.85406 7.0453L10.1404 6.68735L11.6404 4.81235L10.8596 4.18765L10.0473 5.20301C10.0339 5.13493 10.0187 5.06724 10.0019 5C9.87134 4.47735 9.63881 3.98211 9.31419 3.54404C8.78763 2.83348 8.04664 2.31096 7.20052 2.05356C6.3544 1.79617 5.44795 1.81753 4.6149 2.1145C4.10132 2.29758 3.63239 2.57943 3.23286 2.94081C2.98433 3.16561 2.76266 3.42118 2.57378 3.70289L3.19684 4.12062ZM1.85956 5.31265L0.359558 7.18765L1.14043 7.81235L1.95271 6.79699C1.96612 6.86507 1.98124 6.93276 1.99804 7C2.12864 7.52265 2.36117 8.01789 2.6858 8.45596C3.21236 9.16652 3.95335 9.68904 4.79947 9.94644C5.64559 10.2038 6.55203 10.1825 7.38509 9.8855C7.89867 9.70242 8.36759 9.42057 8.76712 9.05919C9.01565 8.83439 9.23733 8.57882 9.4262 8.29711L8.80315 7.87938C8.4002 8.48038 7.81477 8.93596 7.13321 9.17893C6.45164 9.42189 5.71004 9.43937 5.01778 9.22878C4.32553 9.01819 3.71929 8.59069 3.28848 8.00934C2.95797 7.56333 2.74415 7.04489 2.6625 6.50093L4.22264 7.54103L4.77734 6.70897L2.52734 5.20897L2.14592 4.9547L1.85956 5.31265Z" fill="white" fill-opacity="0.8"/>
</svg>
